HIERARCHY
ROOT newVegas:Hips
{
	OFFSET 0.000000 96.479958 0.000000
	CHANNELS 6 Xposition Yposition Zposition Xrotation Yrotation Zrotation
	JOINT newVegas:Pelvis
	{
		OFFSET 0.000000 0.000000 0.000000
		CHANNELS 3 Xrotation Yrotation Zrotation
		JOINT newVegas:LeftUpLeg
		{
			OFFSET 18.735201 -5.666702 -4.541200
			CHANNELS 3 Xrotation Yrotation Zrotation
			JOINT newVegas:LeftLeg
			{
				OFFSET -0.021200 -31.938179 0.493100
				CHANNELS 3 Xrotation Yrotation Zrotation
				JOINT newVegas:LeftFoot
				{
					OFFSET 0.021200 -31.938179 -4.336299
					CHANNELS 3 Xrotation Yrotation Zrotation
					JOINT newVegas:LeftToeBase
					{
						OFFSET 0.943001 -26.722000 15.023500
						CHANNELS 3 Xrotation Yrotation Zrotation
						End Site
						{
							OFFSET 0.000000 30.670183 0.000000
						}
					}
				}
				JOINT newVegas:Left_PantLeg
				{
					OFFSET 0.663870 -9.044666 -1.108900
					CHANNELS 3 Xrotation Yrotation Zrotation
					End Site
					{
						OFFSET 1.415995 20.635357 0.000000
					}
				}
			}
		}
		JOINT newVegas:RightUpLeg
		{
			OFFSET -18.735201 -5.666702 -4.541200
			CHANNELS 3 Xrotation Yrotation Zrotation
			JOINT newVegas:RightLeg
			{
				OFFSET 0.018946 -31.938133 0.493100
				CHANNELS 3 Xrotation Yrotation Zrotation
				JOINT newVegas:RightFoot
				{
					OFFSET -0.018946 -31.938126 -4.336299
					CHANNELS 3 Xrotation Yrotation Zrotation
					JOINT newVegas:RightToeBase
					{
						OFFSET -0.943001 -26.722004 15.023500
						CHANNELS 3 Xrotation Yrotation Zrotation
						End Site
						{
							OFFSET 0.000000 30.670187 0.000000
						}
					}
				}
				JOINT newVegas:Right_PantLeg
				{
					OFFSET -0.661674 -9.044716 -1.108900
					CHANNELS 3 Xrotation Yrotation Zrotation
					End Site
					{
						OFFSET -1.415958 20.635269 0.000000
					}
				}
			}
		}
	}
	JOINT newVegas:Spine
	{
		OFFSET 0.000000 10.199997 -0.299500
		CHANNELS 3 Xrotation Yrotation Zrotation
		JOINT newVegas:Spine1
		{
			OFFSET 0.000000 11.900002 -1.516600
			CHANNELS 3 Xrotation Yrotation Zrotation
			JOINT newVegas:Spine2
			{
				OFFSET 0.000000 13.600006 -2.842500
				CHANNELS 3 Xrotation Yrotation Zrotation
				JOINT newVegas:Neck
				{
					OFFSET 0.000000 9.624100 -2.890100
					CHANNELS 3 Xrotation Yrotation Zrotation
					JOINT newVegas:Head
					{
						OFFSET 0.000000 14.068802 -1.351900
						CHANNELS 3 Xrotation Yrotation Zrotation
						JOINT newVegas:Hair_Back
						{
							OFFSET 0.000000 3.231903 -17.524799
							CHANNELS 3 Xrotation Yrotation Zrotation
							End Site
							{
								OFFSET 0.000000 19.849884 0.000000
							}
						}
						JOINT newVegas:Hair_Front
						{
							OFFSET 0.000000 31.260406 4.573800
							CHANNELS 3 Xrotation Yrotation Zrotation
							JOINT newVegas:Hair_Front1
							{
								OFFSET 0.000000 2.284103 11.993300
								CHANNELS 3 Xrotation Yrotation Zrotation
								JOINT newVegas:Hair_Front2
								{
									OFFSET 0.000000 2.284103 11.993300
									CHANNELS 3 Xrotation Yrotation Zrotation
									End Site
									{
										OFFSET 0.000000 12.208862 0.000000
									}
								}
							}
						}
						JOINT newVegas:Jowel
						{
							OFFSET 0.000000 -7.458206 6.864100
							CHANNELS 3 Xrotation Yrotation Zrotation
							End Site
							{
								OFFSET 0.000000 19.849884 0.000000
							}
						}
					}
				}
				JOINT newVegas:LeftShoulder
				{
					OFFSET 15.263000 10.923401 -0.547700
					CHANNELS 3 Xrotation Yrotation Zrotation
					JOINT newVegas:LeftArm
					{
						OFFSET 25.438599 -2.830597 -13.032500
						CHANNELS 3 Xrotation Yrotation Zrotation
						JOINT newVegas:LeftForeArm
						{
							OFFSET 29.960503 0.000000 0.000000
							CHANNELS 3 Xrotation Yrotation Zrotation
							JOINT newVegas:LeftHand
							{
								OFFSET 27.849251 0.000000 0.000000
								CHANNELS 3 Xrotation Yrotation Zrotation
								JOINT newVegas:LeftHandThumb1
								{
									OFFSET 4.487587 -3.305161 6.305391
									CHANNELS 3 Xrotation Yrotation Zrotation
									JOINT newVegas:LeftHandThumb2
									{
										OFFSET 5.480453 -3.164139 3.164143
										CHANNELS 3 Xrotation Yrotation Zrotation
										JOINT newVegas:LeftHandThumb3
										{
											OFFSET 5.159721 -2.978973 2.978967
											CHANNELS 3 Xrotation Yrotation Zrotation
											End Site
											{
												OFFSET 2.494507 5.926697 1.738678
											}
										}
									}
								}
								JOINT newVegas:LeftHandIndex1
								{
									OFFSET 18.578728 -0.527832 5.208049
									CHANNELS 3 Xrotation Yrotation Zrotation
									JOINT newVegas:LeftHandIndex2
									{
										OFFSET 3.192009 0.000000 0.000000
										CHANNELS 3 Xrotation Yrotation Zrotation
										JOINT newVegas:LeftHandIndex3
										{
											OFFSET 3.835129 0.000000 0.000000
											CHANNELS 3 Xrotation Yrotation Zrotation
											End Site
											{
												OFFSET -0.034599 3.816971 0.371180
											}
										}
									}
								}
								JOINT newVegas:LeftHandMiddle1
								{
									OFFSET 18.476105 0.000000 0.000000
									CHANNELS 3 Xrotation Yrotation Zrotation
									JOINT newVegas:LeftHandMiddle2
									{
										OFFSET 3.324875 0.000000 0.000000
										CHANNELS 3 Xrotation Yrotation Zrotation
										JOINT newVegas:LeftHandMiddle3
										{
											OFFSET 4.596550 0.000000 0.000000
											CHANNELS 3 Xrotation Yrotation Zrotation
											End Site
											{
												OFFSET 0.057701 4.578827 0.399218
											}
										}
									}
								}
								JOINT newVegas:LeftHandRing1
								{
									OFFSET 17.732719 0.121887 -4.201567
									CHANNELS 3 Xrotation Yrotation Zrotation
									JOINT newVegas:LeftHandRing2
									{
										OFFSET 2.733170 0.000000 0.000000
										CHANNELS 3 Xrotation Yrotation Zrotation
										JOINT newVegas:LeftHandRing3
										{
											OFFSET 3.178268 0.000000 0.000000
											CHANNELS 3 Xrotation Yrotation Zrotation
											End Site
											{
												OFFSET 0.119102 3.170624 0.185394
											}
										}
									}
								}
								JOINT newVegas:LeftHandPinky1
								{
									OFFSET 15.989624 -0.606689 -7.535461
									CHANNELS 3 Xrotation Yrotation Zrotation
									JOINT newVegas:LeftHandPinky2
									{
										OFFSET 2.538986 0.000000 0.000000
										CHANNELS 3 Xrotation Yrotation Zrotation
										JOINT newVegas:LeftHandPinky3
										{
											OFFSET 2.593102 0.000000 0.000000
											CHANNELS 3 Xrotation Yrotation Zrotation
											End Site
											{
												OFFSET -0.150902 2.584198 0.152708
											}
										}
									}
								}
							}
							JOINT newVegas:Left_Sleeve
							{
								OFFSET 0.267448 -0.649796 0.577675
								CHANNELS 3 Xrotation Yrotation Zrotation
								End Site
								{
									OFFSET 0.000000 15.991241 0.000000
								}
							}
							JOINT newVegas:Left_CapeC
							{
								OFFSET 15.715958 -8.608795 -6.935905
								CHANNELS 3 Xrotation Yrotation Zrotation
								JOINT newVegas:Left_CapeC1
								{
									OFFSET 0.000000 -8.688499 0.000000
									CHANNELS 3 Xrotation Yrotation Zrotation
									End Site
									{
										OFFSET 0.000000 8.688499 0.000000
									}
								}
							}
						}
						JOINT newVegas:Left_CapeB
						{
							OFFSET 26.118385 -8.608795 -7.079235
							CHANNELS 3 Xrotation Yrotation Zrotation
							JOINT newVegas:Left_CapeB1
							{
								OFFSET 0.000000 -8.688499 0.000000
								CHANNELS 3 Xrotation Yrotation Zrotation
								End Site
								{
									OFFSET 0.000000 8.688499 0.000000
								}
							}
						}
						JOINT newVegas:Left_CapeA
						{
							OFFSET 5.115639 -8.608795 -10.395809
							CHANNELS 3 Xrotation Yrotation Zrotation
							JOINT newVegas:Left_CapeA1
							{
								OFFSET 0.000000 -8.688499 0.000000
								CHANNELS 3 Xrotation Yrotation Zrotation
								End Site
								{
									OFFSET 0.000000 8.688499 0.000000
								}
							}
						}
					}
				}
				JOINT newVegas:RightShoulder
				{
					OFFSET -15.263000 10.923401 -0.547700
					CHANNELS 3 Xrotation Yrotation Zrotation
					JOINT newVegas:RightArm
					{
						OFFSET -25.438599 -2.830597 -13.032500
						CHANNELS 3 Xrotation Yrotation Zrotation
						JOINT newVegas:RightForeArm
						{
							OFFSET -29.960503 0.000000 0.000000
							CHANNELS 3 Xrotation Yrotation Zrotation
							JOINT newVegas:RightHand
							{
								OFFSET -27.849251 0.000000 0.000000
								CHANNELS 3 Xrotation Yrotation Zrotation
								JOINT newVegas:RightHandThumb1
								{
									OFFSET -4.487587 -3.305161 6.305391
									CHANNELS 3 Xrotation Yrotation Zrotation
									JOINT newVegas:RightHandThumb2
									{
										OFFSET -5.480453 -3.164139 3.164143
										CHANNELS 3 Xrotation Yrotation Zrotation
										JOINT newVegas:RightHandThumb3
										{
											OFFSET -5.159721 -2.978973 2.978967
											CHANNELS 3 Xrotation Yrotation Zrotation
											End Site
											{
												OFFSET -2.494507 5.926697 1.738678
											}
										}
									}
								}
								JOINT newVegas:RightHandIndex1
								{
									OFFSET -18.578728 -0.527832 5.208049
									CHANNELS 3 Xrotation Yrotation Zrotation
									JOINT newVegas:RightHandIndex2
									{
										OFFSET -3.192009 0.000000 0.000000
										CHANNELS 3 Xrotation Yrotation Zrotation
										JOINT newVegas:RightHandIndex3
										{
											OFFSET -3.835129 0.000000 0.000000
											CHANNELS 3 Xrotation Yrotation Zrotation
											End Site
											{
												OFFSET 0.034599 3.816971 0.371180
											}
										}
									}
								}
								JOINT newVegas:RightHandMiddle1
								{
									OFFSET -18.476105 0.000000 0.000000
									CHANNELS 3 Xrotation Yrotation Zrotation
									JOINT newVegas:RightHandMiddle2
									{
										OFFSET -3.324875 0.000000 0.000000
										CHANNELS 3 Xrotation Yrotation Zrotation
										JOINT newVegas:RightHandMiddle3
										{
											OFFSET -4.596550 0.000000 0.000000
											CHANNELS 3 Xrotation Yrotation Zrotation
											End Site
											{
												OFFSET -0.057701 4.578827 0.399218
											}
										}
									}
								}
								JOINT newVegas:RightHandRing1
								{
									OFFSET -17.732719 0.121887 -4.201567
									CHANNELS 3 Xrotation Yrotation Zrotation
									JOINT newVegas:RightHandRing2
									{
										OFFSET -2.733170 0.000000 0.000000
										CHANNELS 3 Xrotation Yrotation Zrotation
										JOINT newVegas:RightHandRing3
										{
											OFFSET -3.178268 0.000000 0.000000
											CHANNELS 3 Xrotation Yrotation Zrotation
											End Site
											{
												OFFSET -0.119102 3.170624 0.185394
											}
										}
									}
								}
								JOINT newVegas:RightHandPinky1
								{
									OFFSET -15.989624 -0.606689 -7.535461
									CHANNELS 3 Xrotation Yrotation Zrotation
									JOINT newVegas:RightHandPinky2
									{
										OFFSET -2.538986 0.000000 0.000000
										CHANNELS 3 Xrotation Yrotation Zrotation
										JOINT newVegas:RightHandPinky3
										{
											OFFSET -2.593102 0.000000 0.000000
											CHANNELS 3 Xrotation Yrotation Zrotation
											End Site
											{
												OFFSET 0.150902 2.584198 0.152708
											}
										}
									}
								}
							}
							JOINT newVegas:Right_CapeC
							{
								OFFSET -15.715958 -8.608795 -6.935905
								CHANNELS 3 Xrotation Yrotation Zrotation
								JOINT newVegas:Right_CapeC1
								{
									OFFSET 0.000000 -8.688499 0.000000
									CHANNELS 3 Xrotation Yrotation Zrotation
									End Site
									{
										OFFSET 0.000000 8.688499 0.000000
									}
								}
							}
							JOINT newVegas:Right_Sleeve
							{
								OFFSET -0.267448 -0.649994 0.577675
								CHANNELS 3 Xrotation Yrotation Zrotation
								End Site
								{
									OFFSET 0.000000 15.991302 0.000000
								}
							}
						}
						JOINT newVegas:Right_CapeA
						{
							OFFSET -5.115540 -8.608795 -10.395824
							CHANNELS 3 Xrotation Yrotation Zrotation
							JOINT newVegas:Right_CapeA1
							{
								OFFSET 0.000000 -8.688499 0.000000
								CHANNELS 3 Xrotation Yrotation Zrotation
								End Site
								{
									OFFSET 0.000000 8.688499 0.000000
								}
							}
						}
						JOINT newVegas:Right_CapeB
						{
							OFFSET -26.118187 -8.608795 -7.079266
							CHANNELS 3 Xrotation Yrotation Zrotation
							JOINT newVegas:Right_CapeB1
							{
								OFFSET 0.000000 -8.688499 0.000000
								CHANNELS 3 Xrotation Yrotation Zrotation
								End Site
								{
									OFFSET 0.000000 8.688499 0.000000
								}
							}
						}
					}
				}
				JOINT newVegas:Left_Collar
				{
					OFFSET 18.625099 8.655502 8.828100
					CHANNELS 3 Xrotation Yrotation Zrotation
					JOINT newVegas:Left_Collar1
					{
						OFFSET 14.783401 10.540405 -1.259500
						CHANNELS 3 Xrotation Yrotation Zrotation
						End Site
						{
							OFFSET 0.000000 18.199875 0.000000
						}
					}
				}
				JOINT newVegas:Collar_Back
				{
					OFFSET 0.000000 15.630707 -20.132601
					CHANNELS 3 Xrotation Yrotation Zrotation
					End Site
					{
						OFFSET 0.000000 22.523010 0.000000
					}
				}
				JOINT newVegas:Left_Peck
				{
					OFFSET 17.239599 -5.132599 25.482599
					CHANNELS 3 Xrotation Yrotation Zrotation
					End Site
					{
						OFFSET 0.000000 22.523010 0.000000
					}
				}
				JOINT newVegas:Right_Peck
				{
					OFFSET -17.239599 -5.132202 25.482599
					CHANNELS 3 Xrotation Yrotation Zrotation
					End Site
					{
						OFFSET 0.000000 22.523010 0.000000
					}
				}
				JOINT newVegas:Right_Collar
				{
					OFFSET -18.625099 8.655792 8.828100
					CHANNELS 3 Xrotation Yrotation Zrotation
					JOINT newVegas:Right_Collar1
					{
						OFFSET -14.783401 10.539993 -1.259500
						CHANNELS 3 Xrotation Yrotation Zrotation
						End Site
						{
							OFFSET 0.000000 18.199631 0.000000
						}
					}
				}
			}
		}
		JOINT newVegas:Belly
		{
			OFFSET 0.000000 -6.540398 9.014299
			CHANNELS 3 Xrotation Yrotation Zrotation
			End Site
			{
				OFFSET 0.000000 11.566666 0.000000
			}
		}
	}
	JOINT newVegas:ElvisFacialAnim_Joint
	{
		OFFSET 1.000000 -95.330101 -8.825800
		CHANNELS 3 Xrotation Yrotation Zrotation
		End Site
		{
			OFFSET 0.000000 35.315800 0.000000
		}
	}
}
MOTION
Frames: 4
Frame Time: 0.016667
-1.279045 93.970093 3.565247 -9.053131 -5.173762 7.663657 0.000000 0.000000 0.000000 15.263707 13.671212 -14.309134 -0.625307 -0.176033 -0.107384 -4.422428 -0.399912 4.790452 -0.000000 0.000000 -0.000000 -0.000000 0.000001 -0.000001 -10.534679 -11.799389 -26.938271 35.176430 1.790500 0.523256 -15.375674 -10.912451 10.820965 0.000000 0.000003 0.000000 0.000001 -0.000000 -0.000001 2.391675 1.139923 -4.355750 4.666352 1.729998 -2.802045 4.685184 1.690012 -2.793393 -0.559099 -0.089922 -1.006789 -0.559097 -0.089923 -1.006787 0.000000 0.000000 0.000001 -0.559100 -0.089922 -1.006788 -0.559095 -0.089922 -1.006787 -0.000000 0.000000 -0.000000 0.000000 0.000000 0.000001 4.034697 -13.464702 -7.420041 5.772113 3.721069 -60.112905 11.491839 -25.077070 -5.820599 -8.196586 -3.557930 7.163530 -21.992144 17.035892 -2.008539 5.703898 22.366214 5.520009 -0.000000 -0.000002 -0.000003 -2.899140 12.800594 -7.221981 2.739053 6.814376 -29.837640 -0.000001 0.000001 -0.000003 -8.983036 7.076829 -9.539597 4.275436 7.169703 -39.702346 0.000002 -0.000001 0.000001 -16.256861 8.648371 -21.626600 4.109031 6.928480 -36.756957 0.000001 -0.000004 -0.000001 -21.808789 10.570019 -31.866941 1.910796 2.504664 -24.353777 -0.000000 0.000000 -0.000001 -0.000001 -0.000000 0.000000 -0.000001 -0.000000 0.000000 -0.000002 -0.000000 0.000000 -0.000000 0.000001 0.000001 -0.000000 0.000001 0.000001 -0.000000 0.000001 0.000001 -0.000001 0.000002 0.000001 3.919268 12.466707 7.900377 -3.939680 -11.622637 68.565079 15.857368 12.603587 4.140664 -8.305449 0.914263 -6.259047 -21.991973 -17.035479 2.009235 5.703619 -22.367058 -5.520851 0.000001 -0.000002 -0.000001 -2.899146 -12.801058 7.221829 2.738669 -6.813218 29.837804 0.000000 0.000000 -0.000001 -8.983048 -7.076435 9.538889 4.275414 -7.169924 39.704054 0.000000 -0.000000 0.000001 -16.256636 -8.649612 21.626349 4.109554 -6.928321 36.756308 0.000000 -0.000001 -0.000000 -21.809412 -10.568779 31.865954 1.910738 -2.505947 24.353733 0.000002 0.000003 -0.000001 -0.000002 0.000000 -0.000001 -0.000002 0.000000 -0.000000 -0.000002 0.000000 -0.000000 -0.000000 0.000002 -0.000001 -0.000000 0.000002 0.000000 -0.000000 0.000002 -0.000001 -0.000000 0.000002 0.000000 -0.000000 -0.000000 -0.000000 -0.000000 -0.000000 -0.000000 -0.000000 -0.000000 -0.000000 -0.000000 -0.000000 -0.000000 -0.000000 -0.000000 -0.000000 -0.000000 -0.000000 -0.000000 -0.000000 -0.000000 -0.000000 0.000000 0.000000 0.000000 0.000000 0.000000 0.000000 
-1.332605 94.108368 3.594288 -9.137857 -5.134937 7.663962 0.000000 -0.000000 0.000000 13.555487 14.063044 -13.892560 2.217298 -0.203160 -0.131581 -4.559113 -0.315302 5.008337 -0.000000 -0.000000 -0.000000 0.000000 -0.000001 -0.000000 -10.395499 -11.842634 -26.670251 35.042210 1.552211 0.490284 -15.312511 -10.838548 10.258245 0.000000 0.000001 -0.000000 0.000001 -0.000001 -0.000000 2.515527 1.130763 -4.423523 4.913430 1.686253 -2.761732 4.931895 1.643645 -2.752655 -0.715466 -0.075673 -1.056554 -0.715469 -0.075673 -1.056553 0.000000 0.000000 0.000000 -0.715463 -0.075673 -1.056553 -0.715466 -0.075672 -1.056553 -0.000000 -0.000000 0.000000 0.000000 0.000000 0.000000 3.979139 -13.925286 -7.123388 8.808450 0.870773 -59.276166 9.104179 -28.163810 -6.388904 -8.185931 -3.893770 7.156333 -21.796577 17.067031 -2.254246 5.203254 22.372778 5.475970 0.000002 -0.000004 -0.000001 -2.942366 12.989523 -7.794531 2.737333 6.823873 -30.157488 -0.000001 -0.000003 0.000001 -8.964736 7.351983 -10.247552 4.392802 7.266418 -40.753919 -0.000001 0.000001 0.000000 -16.096195 8.801842 -21.946443 4.244168 7.047110 -37.953814 0.000001 -0.000000 -0.000003 -21.489843 10.821490 -32.647256 2.037492 2.734365 -25.918457 0.000000 -0.000003 -0.000002 -0.000001 -0.000001 -0.000000 -0.000001 -0.000001 -0.000000 -0.000001 -0.000000 -0.000000 0.000001 0.000000 -0.000001 0.000001 0.000000 -0.000002 0.000001 0.000000 -0.000001 0.000001 0.000000 -0.000002 3.867134 12.882175 7.705446 -3.144261 -10.625765 68.163102 17.220650 14.146993 3.950146 -8.237060 -0.271344 -5.322039 -21.973226 -16.867434 2.049168 5.973371 -23.678900 -5.152950 0.000001 -0.000002 -0.000001 -2.802281 -12.889475 8.069513 2.700033 -6.811024 29.794661 -0.000000 -0.000002 0.000000 -9.075010 -7.233171 10.442672 4.430271 -7.269907 40.816801 0.000000 -0.000001 -0.000001 -16.277748 -8.826617 22.153690 4.270824 -7.005728 38.208020 -0.000000 0.000003 -0.000002 -21.881020 -10.795316 31.748437 2.048322 -2.646561 25.644157 -0.000001 0.000000 -0.000005 -0.000002 0.000000 0.000002 -0.000002 0.000000 0.000000 -0.000002 0.000000 0.000002 -0.000000 0.000000 0.000001 -0.000000 0.000000 0.000001 -0.000000 0.000000 0.000001 -0.000000 -0.000000 0.000001 0.000000 -0.000000 0.000000 0.000000 -0.000000 0.000000 0.000000 -0.000000 0.000000 0.000000 -0.000000 0.000000 0.000000 -0.000000 0.000000 0.000000 -0.000000 0.000000 0.000000 -0.000000 0.000000 -0.000000 0.000000 -0.000000 0.000000 -0.000000 0.000000 
-1.414065 94.305252 3.669878 -9.318359 -5.010106 7.523251 0.000000 0.000000 0.000000 11.232932 14.531277 -13.156269 6.006141 -0.217561 -0.159348 -4.512326 -0.182777 5.329195 0.000000 -0.000000 -0.000000 -0.000000 -0.000001 -0.000001 -10.214864 -11.824878 -26.528742 34.900474 1.534085 0.487187 -14.270627 -10.913349 10.520461 0.000000 -0.000002 -0.000000 -0.000001 0.000001 -0.000000 2.754855 1.091559 -4.454167 5.395335 1.608660 -2.665655 5.413140 1.560643 -2.655692 -0.991792 -0.051384 -1.150553 -0.991791 -0.051384 -1.150552 0.000000 -0.000000 0.000000 -0.991864 -0.051387 -1.150552 -0.991714 -0.051377 -1.150554 0.000000 -0.000000 -0.000000 0.000000 -0.000000 -0.000000 3.884198 -14.711367 -6.633770 14.149920 -3.920243 -57.208121 5.105489 -33.594968 -7.629388 -8.168619 -4.251234 7.302860 -21.332267 17.091724 -2.837960 3.958060 22.289154 5.402729 0.000001 -0.000001 -0.000003 -3.076581 13.365441 -9.160869 2.825251 6.942463 -31.688823 -0.000001 -0.000003 0.000003 -8.994083 7.873353 -11.761428 4.679767 7.511349 -43.257483 0.000001 -0.000001 0.000001 -15.795530 9.131225 -22.750957 4.548045 7.323654 -40.771506 -0.000000 0.000003 0.000004 -20.863673 11.238489 -34.243635 2.364629 3.249433 -29.568295 -0.000001 0.000000 -0.000005 -0.000002 0.000000 -0.000000 -0.000002 0.000000 -0.000000 -0.000003 0.000000 -0.000000 -0.000000 0.000000 0.000004 0.000000 0.000000 0.000004 -0.000000 0.000000 0.000004 -0.000001 -0.000000 0.000004 3.778978 13.585870 7.369179 -1.561297 -8.690972 67.291119 19.661263 17.108686 3.253689 -8.102059 -2.099959 -3.619066 -21.920082 -16.431938 2.146744 5.822817 -25.325648 -4.915315 0.000001 -0.000002 -0.000003 -2.709181 -13.063776 9.415219 2.637322 -6.812462 29.750788 -0.000000 0.000001 -0.000002 -9.249255 -7.574080 11.793330 4.704353 -7.483141 42.958731 0.000002 0.000001 0.000003 -16.291698 -9.133666 22.933024 4.485007 -7.133873 40.801706 -0.000000 0.000001 -0.000001 -22.155947 -11.243205 31.536732 2.308629 -2.917778 28.251674 -0.000000 0.000003 0.000001 0.000001 -0.000001 0.000001 0.000001 -0.000001 0.000001 0.000001 -0.000001 0.000001 -0.000000 0.000000 -0.000001 -0.000000 0.000000 0.000001 -0.000000 0.000000 -0.000001 0.000000 -0.000000 0.000001 0.000000 -0.000000 -0.000000 0.000000 -0.000000 -0.000000 0.000000 -0.000000 -0.000000 0.000000 -0.000000 -0.000000 0.000000 -0.000000 -0.000000 0.000000 -0.000000 -0.000000 0.000000 -0.000000 -0.000000 0.000000 0.000000 -0.000000 0.000000 0.000000 0.000000 
-1.466537 94.575089 3.865028 -9.537431 -4.834991 7.294108 -0.000000 0.000000 -0.000000 10.159319 14.689495 -12.632145 7.674986 -0.225543 -0.169015 -3.788817 -0.082760 5.645708 0.000000 0.000001 -0.000000 0.000001 -0.000000 -0.000000 -9.884990 -12.042294 -26.449812 34.406187 1.569320 0.490119 -12.714127 -10.856301 11.060626 -0.000000 -0.000002 0.000000 0.000003 0.000000 -0.000001 3.014714 1.054741 -4.497965 5.918541 1.537689 -2.526866 5.935775 1.483429 -2.515835 -1.240440 -0.035593 -1.246440 -1.240436 -0.035593 -1.246441 0.000000 0.000000 0.000000 -1.240366 -0.035591 -1.246439 -1.240446 -0.035595 -1.246440 -0.000000 0.000000 0.000000 0.000000 0.000000 0.000000 3.794427 -15.397644 -6.279941 19.088014 -7.935481 -54.787942 2.088977 -38.551083 -8.015109 -8.160010 -4.316246 7.783470 -20.667464 17.055906 -3.671372 2.093565 21.990042 5.341712 0.000000 -0.000003 -0.000005 -3.328994 13.761960 -11.122457 3.108014 7.224233 -34.978280 -0.000006 -0.000001 0.000000 -9.153361 8.386893 -13.672301 5.098728 7.862094 -46.821661 0.000002 -0.000001 -0.000002 -15.503455 9.530029 -23.916872 4.949155 7.703881 -44.692342 0.000000 -0.000001 -0.000000 -20.170256 11.554922 -36.157328 2.865204 3.935167 -34.609040 -0.000001 -0.000003 -0.000004 -0.000002 0.000001 0.000000 -0.000002 0.000001 0.000000 -0.000003 0.000001 0.000000 -0.000002 0.000000 -0.000000 -0.000001 -0.000001 -0.000001 -0.000002 0.000000 -0.000000 -0.000001 0.000000 -0.000000 3.699333 14.186511 7.099045 0.249529 -6.540143 66.152049 22.073761 20.344051 2.093891 -7.944386 -3.252930 -1.946575 -21.837788 -15.758138 2.290956 4.826182 -25.921275 -5.103676 -0.000000 -0.000001 0.000001 -2.750375 -13.242986 10.381503 2.660929 -6.889628 30.409577 -0.000002 -0.000002 -0.000000 -9.463677 -7.971138 12.505467 4.962000 -7.753078 45.326327 -0.000001 -0.000001 0.000005 -16.257527 -9.400693 23.322057 4.532911 -7.232886 43.244171 0.000001 -0.000001 0.000004 -22.702104 -11.736738 31.293854 2.545867 -3.202589 31.286081 0.000000 0.000001 0.000003 -0.000003 0.000000 -0.000000 -0.000003 0.000000 0.000000 -0.000003 0.000000 -0.000001 0.000001 0.000001 -0.000001 0.000001 0.000001 -0.000001 0.000001 0.000001 -0.000001 0.000001 0.000001 -0.000001 0.000000 0.000000 -0.000000 0.000000 0.000000 -0.000000 0.000000 0.000000 -0.000000 0.000000 0.000000 -0.000000 0.000000 0.000000 -0.000000 0.000000 0.000000 -0.000000 0.000000 0.000000 -0.000000 -0.000000 0.000000 -0.000000 -0.000000 0.000000 -0.000000 
